<svg width="20" height="20" fill="none" xmlns="http://www.w3.org/2000/svg"><path fill-rule="evenodd" clip-rule="evenodd" d="M3 2.75a1.25 1.25 0 00-1.25 1.23 15.25 15.25 0 0014.27 14.27A1.25 1.25 0 0017.25 17v-3.492l-3.935-1.574-1.172 1.952a.75.75 0 01-.975.287 11.75 11.75 0 01-5.34-5.341.75.75 0 01.286-.975l1.952-1.171L6.492 2.75H3zm-1.945-.695A2.75 2.75 0 013 1.25h4a.75.75 0 01.696.471l2 5a.75.75 0 01-.31.922L7.498 8.776a10.25 10.25 0 003.726 3.726l1.133-1.888a.75.75 0 01.921-.31l5 2a.75.75 0 01.472.696v4a2.75 2.75 0 01-2.796 2.749A16.75 16.75 0 01.25 4c0-.73.29-1.429.805-1.945zM12.25 5a.75.75 0 01.75-.75A2.75 2.75 0 0115.75 7a.75.75 0 01-1.5 0A1.25 1.25 0 0013 5.75a.75.75 0 01-.75-.75zm0-4A.75.75 0 0113 .25 6.75 6.75 0 0119.75 7a.75.75 0 01-1.5 0A5.25 5.25 0 0013 1.75a.75.75 0 01-.75-.75z" fill="#13AB4E"/></svg>