<svg width="32" height="32" fill="none" xmlns="http://www.w3.org/2000/svg"><path d="M31.06 26.1a.625.625 0 00-.625.625v3.748a.278.278 0 01-.277.277H9.53a.278.278 0 01-.278-.277v-7.584l.425-.424a.625.625 0 000-.884l-.153-.153 1.423-1.423c2.41 1.15 5.399.64 7.282-1.255a6.36 6.36 0 001.875-4.527c0-3.49-2.912-6.403-6.403-6.403-1.652 0-3.26.65-4.449 1.798V4.234c0-.153.125-.277.278-.277h2.334v.747c0 1.015.849 1.864 1.863 1.864H25.96c1.014 0 1.864-.85 1.864-1.864v-.747h2.334c.153 0 .277.124.277.277V21.23a.625.625 0 001.25 0V4.234a1.53 1.53 0 00-1.527-1.527l-5.55-.001v-.43A2.278 2.278 0 0022.33 0h-4.974a2.278 2.278 0 00-2.276 2.276v.43H9.53a1.53 1.53 0 00-1.528 1.528v7.069a6.433 6.433 0 00-.056 5.726l-1.411 1.41-.14-.139a.625.625 0 00-.884 0l-4.345 4.346c-1.135 1.134-1.135 3.03 0 4.165 1.135 1.134 3.03 1.134 4.165 0l2.671-2.672v6.333A1.53 1.53 0 009.53 32h20.628a1.53 1.53 0 001.527-1.528v-3.748a.625.625 0 00-.625-.624zM15.706 3.956c.345 0 .625-.28.625-.625V2.276c0-.566.46-1.026 1.026-1.026h4.974c.566 0 1.026.46 1.026 1.026V3.33c0 .345.28.625.625.625h2.59v.75a.618.618 0 01-.61.611H13.726a.619.619 0 01-.612-.612v-.75h2.59zM9.91 17.71c-1.58-1.714-1.796-4.37-.517-6.317a5.192 5.192 0 014.308-2.324c1.556 0 3.041.716 4.017 1.926a5.162 5.162 0 01-.013 6.47c-1.951 2.401-5.698 2.523-7.795.245zm-1.289.41c.356.463.776.846 1.226 1.215L8.64 20.544l-1.22-1.22 1.2-1.204zm-4.174 7.806a1.71 1.71 0 01-2.397 0 1.697 1.697 0 010-2.397l3.903-3.904 2.397 2.397-3.903 3.904z" fill="#13AB4E"/><path d="M20.994 2.659H18.71a.625.625 0 00-.003 1.25h2.289a.625.625 0 00-.003-1.25zm-5.718 19.388a3.345 3.345 0 00-3.341 3.342 3.345 3.345 0 003.341 3.341c1.358 0 2.57-.81 3.089-2.064a.625.625 0 10-1.155-.478 2.086 2.086 0 01-1.934 1.292 2.094 2.094 0 01-2.091-2.091c0-1.154.938-2.092 2.091-2.092a.625.625 0 000-1.25zm11.597-10.113h-5.135a.625.625 0 000 1.25h5.135a.625.625 0 000-1.25zm-1.944 4.216a.625.625 0 000-1.25h-3.19a.625.625 0 000 1.25h3.19zm2.569 7.695a.625.625 0 00-.625-.625H21.31a.625.625 0 000 1.25h5.563c.345 0 .625-.28.625-.625zm-6.188 2.34a.625.625 0 100 1.25h3.619a.625.625 0 000-1.25h-3.62z" fill="#13AB4E"/><path d="M15.102 24.5a.625.625 0 00-.883.883l.853.853c.238.24.644.24.883 0l2.275-2.274a.625.625 0 00-.884-.884l-1.833 1.832-.41-.41zm16.536-.752a.63.63 0 00-.816-.338.63.63 0 00-.338.816.63.63 0 00.816.338.63.63 0 00.338-.816zm-19.183-7.236c.24.239.645.24.884 0l3.273-3.273a.625.625 0 00-.884-.884l-2.83 2.831-1.16-1.16a.625.625 0 00-.884.885l1.601 1.601z" fill="#13AB4E"/></svg>