<svg width="32" height="32" fill="none" xmlns="http://www.w3.org/2000/svg"><path d="M24.483 8.297c0 .97-.706 1.56-1.221 1.992-.195.164-.559.463-.558.575a.781.781 0 01-.787.788h-.006a.783.783 0 01-.793-.775c-.007-.86.62-1.374 1.124-1.797.395-.332.654-.566.654-.78a.786.786 0 00-1.57 0 .793.793 0 11-1.586 0 2.372 2.372 0 014.744-.003zm-2.55 4.087a.779.779 0 00-.776.793v.007c0 .438.338.79.776.79a.796.796 0 000-1.59zM5.94 17.911a.793.793 0 100 1.586h.066a.793.793 0 100-1.586H5.94zm2.757 0a.793.793 0 100 1.586h.066a.793.793 0 100-1.586h-.066zM32 5.239v8.93a3.814 3.814 0 01-3.81 3.83H17.901c-.201 0-.367-.001-.505-.004a4.191 4.191 0 00-.373.003 5.438 5.438 0 00-.386.337c-.062.058-.132.12-.208.19l-2.911 2.653a.807.807 0 01-.863.14.809.809 0 01-.49-.726v-8.411h-8.31c-1.24 0-2.268 1.016-2.268 2.255v8.93c0 1.24 1.028 2.214 2.267 2.214h11.493c.198 0 .383.091.53.225l2.37 2.186v-7.54a.793.793 0 111.588 0v9.338c0 .315-.18.595-.468.722a.76.76 0 01-.314.063.802.802 0 01-.535-.216l-3.478-3.191H3.854C1.74 27.167 0 25.48 0 23.366v-8.93c0-2.114 1.74-3.842 3.854-3.842h8.311V5.239c0-2.115 1.753-3.813 3.868-3.813H28.19A3.8 3.8 0 0132 5.239zm-1.587 0a2.21 2.21 0 00-2.223-2.226H16.033c-1.24 0-2.28.986-2.28 2.226v13.555l1.594-1.442c.074-.067.157-.129.217-.185.729-.67.915-.778 1.865-.759.13.003.284.004.472.004h10.29a2.225 2.225 0 002.222-2.243v-8.93z" fill="#333"/></svg>