<svg width="32" height="32" fill="none" xmlns="http://www.w3.org/2000/svg"><path d="M29.354 6.146l-5-5A.5.5 0 0024 1H11.5a2.002 2.002 0 00-2 2v14.5h1V3a1.001 1.001 0 011-1h12v3a2.002 2.002 0 002 2h3v22a1.002 1.002 0 01-1 1h-16a.998.998 0 01-.666-.255l-.668.746c.367.328.842.51 1.334.509h16a2.002 2.002 0 002-2V6.5a.5.5 0 00-.146-.354zM24.5 5V2.707L27.793 6H25.5a1.001 1.001 0 01-1-1z" fill="#333"/><path d="M11.5 3h2v1h-2V3zm3 0H18v1h-3.5V3zm-3 2h3v1h-3V5zm0 3H15v1h-3.5V8zM16 8h4v1h-4V8zm-4.5 2H16v1h-4.5v-1zm2.5 2h5v1h-5v-1zm6 0h4.5v1H20v-1zm5.5 0h2v1h-2v-1zm-14 2h5v1h-5v-1zm6 0H22v1h-4.5v-1zm5.5 0h4.5v1H23v-1zm-11.5 2H19v1h-7.5v-1zm8.5 0h4.5v1H20v-1zm5.5 0h2v1h-2v-1zm-11 9.5a.5.5 0 00-.5.5v3a.5.5 0 00.5.5h3a.5.5 0 00.5-.5v-3a.5.5 0 00-.5-.5h-3zm2.5 3h-2v-2h2v2zm2 .5a.5.5 0 00.5.5h3a.5.5 0 00.5-.5v-5.5a.5.5 0 00-.5-.5h-3a.5.5 0 00-.5.5V29zm1-5h2v4.5h-2V24zm4.5 5.5h3a.5.5 0 00.5-.5v-7.5a.5.5 0 00-.5-.5h-3a.5.5 0 00-.5.5V29a.5.5 0 00.5.5zM25 22h2v6.5h-2V22zM3.5 24a4.505 4.505 0 014.288-4.495l-.642.641.708.707 1.5-1.5a.5.5 0 000-.707l-1.5-1.5-.708.707.651.651a5.5 5.5 0 00-2.547 10.26l.5-.866A4.518 4.518 0 013.5 24zm10 0a5.52 5.52 0 00-2.75-4.764l-.5.866a4.5 4.5 0 01-2.038 8.393l.642-.641-.708-.708-1.5 1.5a.5.5 0 000 .708l1.5 1.5.708-.708-.651-.65A5.506 5.506 0 0013.5 24z" fill="#333"/><path d="M8.354 24.354A.5.5 0 008.5 24v-2.5h-1v2.293l-1.354 1.353.708.708 1.5-1.5z" fill="#333"/></svg>