<svg width="32" height="32" fill="none" xmlns="http://www.w3.org/2000/svg"><path d="M28.5 17.265V7.46c1.694-.244 3-1.7 3-3.46 0-1.93-1.57-3.5-3.5-3.5S24.5 2.07 24.5 4H.5v20h15.025c.26 4.178 3.733 7.5 7.975 7.5 4.411 0 8-3.589 8-8a7.984 7.984 0 00-3-6.235zM28 1.5c1.378 0 2.5 1.122 2.5 2.5S29.378 6.5 28 6.5A2.503 2.503 0 0125.5 4c0-1.378 1.122-2.5 2.5-2.5zM1.5 5h23.148a3.5 3.5 0 00.553 1.093L22.143 9.15A1.48 1.48 0 0021.5 9c-.231 0-.447.056-.642.15L19.85 8.143c.093-.196.15-.412.15-.643 0-.827-.673-1.5-1.5-1.5S17 6.673 17 7.5c0 .231.056.447.15.643l-2.507 2.507A1.486 1.486 0 0014 10.5c-.827 0-1.5.673-1.5 1.5s.673 1.5 1.5 1.5 1.5-.673 1.5-1.5c0-.231-.056-.447-.15-.643l2.507-2.507c.196.094.412.15.643.15.231 0 .447-.056.642-.15l1.008 1.007c-.093.196-.15.412-.15.643 0 .827.673 1.5 1.5 1.5s1.5-.673 1.5-1.5c0-.231-.056-.447-.15-.643L25.907 6.8c.457.343 1 .575 1.592.66v9.123a7.937 7.937 0 00-4-1.083 7.974 7.974 0 00-6 2.727V16h-3v6h1.146c-.062.326-.1.661-.12 1H1.5V5zm20 5a.5.5 0 11-.001 1.001A.5.5 0 0121.5 10zM18 7.5a.5.5 0 111.001.001A.5.5 0 0118 7.5zM14.5 12a.5.5 0 11-1.001-.001A.5.5 0 0114.5 12zm9 15.5c-2.206 0-4-1.794-4-4s1.794-4 4-4 4 1.794 4 4-1.794 4-4 4zm-7-7.864A7.94 7.94 0 0015.905 21H15.5v-4h1v2.636zm6.5-3.11v2a5.007 5.007 0 00-4.5 4.974c0 .732.162 1.425.445 2.052l-1.734 1.002A6.94 6.94 0 0116.5 23.5c0-3.691 2.873-6.716 6.5-6.974zm.5 13.974a6.996 6.996 0 01-5.794-3.078l1.742-1.005A4.992 4.992 0 0023.5 28.5a4.992 4.992 0 004.052-2.083l1.742 1.005A6.996 6.996 0 0123.5 30.5zm6.289-3.947l-1.735-1.001c.284-.627.446-1.32.446-2.052a5.007 5.007 0 00-4.5-4.974v-2c3.627.258 6.5 3.283 6.5 6.974a6.94 6.94 0 01-.711 3.053z" fill="#333"/><path d="M23.5 20.5c-1.654 0-3 1.346-3 3s1.346 3 3 3 3-1.346 3-3-1.346-3-3-3zm0 5c-1.103 0-2-.897-2-2s.897-2 2-2 2 .897 2 2-.897 2-2 2zM2.5 6h1v1h-1V6zm2 0h7v1h-7V6zm-2 2h1v1h-1V8zm2 0h7v1h-7V8zm-2 2h1v1h-1v-1zm2 0h7v1h-7v-1zm-2 2h1v1h-1v-1zm2 0h7v1h-7v-1zm-2 10h3v-5h-3v5zm1-4h1v3h-1v-3zm3 4h3v-4h-3v4zm1-3h1v2h-1v-2zm3 3h3v-8h-3v8zm1-7h1v6h-1v-6z" fill="#333"/></svg>